<svg preserveAspectRatio="xMidYMid meet" data-bbox="17 17 166 166" viewBox="17 17 166 166" xmlns="http://www.w3.org/2000/svg" data-type="color" role="presentation" aria-hidden="true" aria-label="">
    <g>
        <path d="M100 17c-45.9 0-83 37.1-83 83s37.1 83 83 83 83-37.1 83-83c-.1-45.9-37.2-83-83-83zM76 139.3c-.8 0-1.7-.3-2.3-.9-1.4-1.3-1.5-3.4-.3-4.8l27.1-30.1-27.1-30.2c-1.2-1.4-1.1-3.6.3-4.8 1.4-1.3 3.6-1.1 4.8.3l29.1 32.4c1.1 1.3 1.1 3.3 0 4.7l-29.1 32.4c-.7.7-1.6 1-2.5 1zm58.5-33.5l-29.1 32.4c-.7.8-2.5 1.1-3.4 1.1-.8 0-.8-.3-1.4-.9-1.4-1.3-1.5-3.4-.3-4.8l27.1-30.1-27.1-30.1c-1.2-1.4-1.1-3.6.3-4.8 1.4-1.3 3.6-1.1 4.8.3l29.1 32.4c1.1 1.2 1.1 3.2 0 4.5z" fill="#2263d6" data-color="1"></path>
    </g>
</svg>