<svg preserveAspectRatio="none" data-bbox="29 19.5 141.999 161" viewBox="29 19.5 141.999 161" height="200" width="200" xmlns="http://www.w3.org/2000/svg" data-type="shape" role="presentation" aria-hidden="true" aria-label="">
    <g>
        <path d="M163.48 149.089c-3.142 5.751-7.246 11.149-12.269 15.796-26.945 24.934-76.944 17.631-101.523-5.189-14.614-13.568-20.657-31.02-20.688-48.062-.031-17.043 5.55-33.842 12.254-50.216 5.594-13.664 13.12-28.229 30.105-35.891 14.06-6.342 31.878-6.624 48.493-5.541 10.31.672 20.929 1.886 29.584 5.895 8.655 4.009 14.841 11.483 12.468 18.594-1.724 5.168-7.406 9.13-11.404 13.628-8.564 9.635-9.104 22.55-1.36 32.522 7.174 9.238 21.258 16.523 21.802 27.823.479 9.915-2.082 20.794-7.462 30.641z"></path>
        <path d="M105.5 89.2c15-2.5 26.5-15.6 26.5-31.4 0-17.6-14.2-31.8-31.8-31.8S68.4 40.3 68.4 57.9c0 15.8 11.5 28.8 26.5 31.4C61 92 34.4 119.5 34.4 140c0 21.5 29.5 26.9 65.8 26.9 36.4 0 65.8-5.4 65.8-26.9 0-20.6-26.7-48.1-60.5-50.8z" fill="#1D1D1B" data-color="1"></path>
    </g>
</svg>

