<svg  data-bbox="23.999 20.502 152 158.998" viewBox="23.999 20.502 152 158.998" xmlns="http://www.w3.org/2000/svg" data-type="shape" role="presentation" aria-hidden="true" aria-label="">
    <g>
        <path d="M33.758 60.174c-17.32 24.757-8.751 62.067 3.819 86.859 7.773 15.332 21.838 35.886 46.141 31.984 5.526-.887 10.586-3.167 16.054-4.271 16.952-3.424 36.019 4.667 51.766-1.53 6.229-2.451 11.013-6.889 14.686-11.707 11.588-15.202 12.988-35.352 3.585-51.58-6.596-11.383-18.021-20.815-22.417-32.896-4.313-11.851-1.286-24.74-4.481-36.828-3.886-14.703-20.471-25.243-37.541-16.56-6.449 3.28-11.975 7.686-19.005 10.185-7.319 2.602-15.435 3.282-22.862 5.674-13.94 4.488-23.516 11.767-29.745 20.67z" fill="rgb(0, 87, 225)" ></path>
    </g>
</svg>