<svg data-bbox="10.001 18.5 180 163.001" viewBox="10.001 18.5 180 163.001" xmlns="http://www.w3.org/2000/svg" data-type="shape" role="presentation" aria-hidden="true" aria-label="">
    <g>
        <path d="M118.476 18.5c-39.43 0-71.066 32.051-71.066 70.969 0 9.157 1.834 17.857 5.043 26.098-.917.458-1.834.916-2.292 1.374l-32.553 24.725-.458.458c-8.711 8.242-9.628 21.52-1.834 30.677l1.375 1.374c3.668 4.121 9.17 6.868 14.672 7.326h.917c5.043 0 10.545-1.831 14.213-5.494l32.553-24.725c.458-.458 1.375-.916 1.834-1.831 11.462 7.326 24.3 10.989 38.055 10.989 39.43 0 71.066-32.051 71.066-70.969S157.906 18.5 118.476 18.5zm-82.07 144.881l-.458.458c-.917.916-2.292 1.374-3.668 1.374-1.375 0-2.751-.458-3.668-1.831l-1.375-.916c-1.834-2.289-1.834-5.494 0-7.326l32.553-24.725c2.292 3.205 5.043 6.41 7.794 9.157l-31.178 23.809zm82.07-18.772c-30.26 0-55.019-24.725-55.019-54.944s24.758-54.944 55.019-54.944 55.019 24.725 55.019 54.944-24.759 54.944-55.019 54.944z" fill="white" data-color="1"></path>
        <path d="M159.74 74.555a8.213 8.213 0 0 0-8.253 8.242c0 21.978-17.881 39.834-39.889 39.834a8.213 8.213 0 0 0-8.253 8.242 8.213 8.213 0 0 0 8.253 8.242c31.177 0 56.394-25.183 56.394-56.317a8.213 8.213 0 0 0-8.252-8.243z" fill="white" data-color="1" ></path>
    </g>
</svg>