<svg  data-bbox="25 35.5 150 129" xmlns="http://www.w3.org/2000/svg"  viewBox="25 35.5 150 129" data-type="shape" role="presentation" aria-hidden="true" aria-label="">
    <g>
        <path d="M60.737 49.182c8.275-.674 16.937 1.138 26.609.273 15.963-1.427 31.182-7.908 46.56-12.017 6.51-1.74 13.434-2.768 19.956-1.072 8.065 2.097 12.642 8.203 15.303 15.732 7.508 21.244 6.428 37.716 4.132 60.133-1.29 12.597-5.185 27.884-18.721 32.255-10.643 3.437-22.453-.292-33.448 1.681-19.478 3.496-40.779 23.034-61.08 17.279-40.197-11.397-45.26-80.282-18.052-105.9 6.208-5.845 12.36-7.844 18.741-8.364z" fill="rgb(0, 87, 225)"></path>
    </g>
</svg>