<svg data-bbox="21.046 38.031 157.943 123.969" viewBox="21.046 38.031 157.943 123.969"  xmlns="http://www.w3.org/2000/svg" data-type="shape" role="presentation" aria-hidden="true" aria-label="">
    <g>
        <path d="M170 77.2c-7.8-11.5-19.7-19.3-33.3-21.9-7.3-1.4-14.6-1.2-21.8.5-2.8-3.2-6.1-6-9.7-8.5-12-8-26.3-11-40.4-8.3-14.1 2.7-26.4 10.7-34.4 22.6S19.3 87.8 22 101.9c2 10.6 7.1 20.2 14.7 27.8l.4 16.8c0 .8.4 1.6 1.1 2.1.5.3.9.5 1.5.5.3 0 .6-.1.9-.2L58 143c8.7 2.9 18 3.5 26.9 1.8 1.8-.3 3.6-.8 5.3-1.3 7.3 7.3 16.6 12.2 26.9 14.1 8.8 1.7 18.1 1 26.6-1.9l18.1 6.2c.1 0 .2.1.3.1.2 0 .3-.1.5-.2.2-.2.4-.4.4-.7l.4-17.5c7.6-7.5 12.7-16.9 14.7-27.4 2.5-13.5-.3-27.5-8.1-39zm-86 62.5c-8.4 1.6-17.1.9-25.1-1.9-.6-.2-1.2-.2-1.7 0l-15 5.1-.3-14.3c0-.7-.3-1.3-.8-1.8-7.3-7-12.1-16-13.9-25.8-2.4-12.8.2-25.8 7.6-36.5s18.3-18 31.1-20.5c3.1-.6 6.2-.9 9.2-.9 9.6 0 19.1 2.9 27.2 8.5 10.7 7.3 18 18.3 20.5 31.1 4.8 26.5-12.5 52-38.8 57zm92.4-23.7c-2 10.2-7 19.4-14.5 26.7-.2.2-.2.4-.2.6l-.4 16.7-17.2-5.8c-.2-.1-.4-.1-.6 0-8.4 2.9-17.4 3.6-26 2-9.6-1.8-18.4-6.3-25.4-13 25.1-8.5 40.8-34.4 35.7-61.1-1.7-9.2-5.8-17.6-11.6-24.6 6.6-1.4 13.4-1.6 20.1-.2 13.2 2.5 24.6 10 32.2 21.2 7.5 10.9 10.3 24.2 7.9 37.5z" fill="white" data-color="1"></path>
        <path d="M63.8 91.2c0 2.7-2.2 4.9-4.9 4.9S54 93.9 54 91.2s2.2-4.9 4.9-4.9 4.9 2.2 4.9 4.9z" fill="white" data-color="1"></path>
        <path d="M80.2 91.2c0 2.7-2.2 4.9-4.9 4.9s-4.9-2.2-4.9-4.9 2.2-4.9 4.9-4.9 4.9 2.2 4.9 4.9z" fill="white" data-color="1"></path>
        <path d="M96.5 91.2c0 2.7-2.2 4.9-4.9 4.9s-4.9-2.2-4.9-4.9 2.2-4.9 4.9-4.9 4.9 2.2 4.9 4.9z" fill="white" data-color="1"></path>
    </g>
</svg>